<?xml version="1.0" encoding="UTF-8"?>
<svg version="1.1" xmlns="http://www.w3.org/2000/svg" width="432" height="90">
  <path d="M0 0 C142.56 0 285.12 0 432 0 C432 29.7 432 59.4 432 90 C289.44 90 146.88 90 0 90 C0 60.3 0 30.6 0 0 Z " fill="#F6F7F9" transform="translate(0,0)" />
  <path d="M0 0 C0.83814743 -0.00960754 1.67629486 -0.01921509 2.5398407 -0.02911377 C3.44813126 -0.03336365 4.35642181 -0.03761353 5.29223633 -0.04199219 C6.22723465 -0.04769226 7.16223297 -0.05339233 8.12556458 -0.05926514 C10.10860053 -0.06872375 12.09165226 -0.07525253 14.07470703 -0.07910156 C17.09476619 -0.08877272 20.11413486 -0.11977365 23.1340332 -0.15136719 C25.06176354 -0.15790075 26.98949875 -0.16314983 28.91723633 -0.16699219 C29.81540573 -0.17933899 30.71357513 -0.19168579 31.63896179 -0.20440674 C37.92934266 -0.18229891 43.03091325 0.56207187 47.89770508 4.91503906 C48.59766602 5.81029297 48.59766602 5.81029297 49.31176758 6.72363281 C49.79387695 7.32304687 50.27598633 7.92246094 50.77270508 8.54003906 C52.75255865 11.29721769 53.0710336 13.04565847 53.11376953 16.39208984 C53.13302238 17.70453171 53.13302238 17.70453171 53.15266418 19.04348755 C53.16005112 19.99238861 53.16743805 20.94128967 53.17504883 21.91894531 C53.18312057 22.89596405 53.19119232 23.87298279 53.19950867 24.87960815 C53.21335807 26.95259829 53.22407638 29.02561131 53.23193359 31.09863281 C53.24908591 34.2527268 53.29295739 37.40575612 53.3371582 40.55957031 C53.34729051 42.57518761 53.35580493 44.59081383 53.36254883 46.60644531 C53.38005692 47.54320099 53.397565 48.47995667 53.41560364 49.44509888 C53.39595343 55.44899791 52.72662515 60.3355885 48.93676758 65.16113281 C43.43394143 70.33930211 37.84801692 70.89497611 30.55786133 70.79003906 C29.5869606 70.79245102 28.61605988 70.79486298 27.61573792 70.79734802 C25.5743499 70.79637346 23.53293417 70.78307375 21.49169922 70.75805664 C18.37937131 70.72368917 15.26987795 70.73743405 12.1574707 70.75683594 C10.16592225 70.74993805 8.17438106 70.74026618 6.18286133 70.72753906 C5.25976669 70.73249893 4.33667206 70.7374588 3.38560486 70.74256897 C-2.60058762 70.63417528 -6.1872432 69.70499364 -11.06323242 66.16113281 C-18.08098508 58.83241154 -16.78517144 47.28848011 -16.66015625 37.90185547 C-16.62572439 35.03546413 -16.63956413 32.1721433 -16.65893555 29.30566406 C-16.65203866 27.46320317 -16.64236769 25.62075014 -16.62963867 23.77832031 C-16.63459854 22.93228241 -16.63955841 22.08624451 -16.64466858 21.21456909 C-16.51971027 14.83903306 -15.09698459 9.28671705 -10.54542542 4.59738159 C-6.97831526 1.54839292 -4.63065387 0.0428235 0 0 Z " fill="#51D7E9" transform="translate(43.063232421875,11.8388671875)" />
  <path d="M0 0 C0.66 0 1.32 0 2 0 C2.1018729 6.26206481 2.17166281 12.52391392 2.21972656 18.78662109 C2.23977468 20.91463202 2.26702054 23.04258832 2.30175781 25.17041016 C2.35057548 28.23874433 2.37303726 31.30634673 2.390625 34.375 C2.41127014 35.31802979 2.43191528 36.26105957 2.45318604 37.23266602 C2.45520922 43.261759 1.81160481 48.15571241 -2 53 C-7.53945683 58.23077035 -13.17785989 58.72267699 -20.51953125 58.59375 C-21.49991867 58.59379028 -22.48030609 58.59383057 -23.49040222 58.59387207 C-25.54859886 58.58853924 -27.60679654 58.57105312 -29.66479492 58.54199219 C-32.82077778 58.49988957 -35.97464111 58.50094956 -39.13085938 58.5078125 C-41.13543153 58.49732757 -43.13999271 58.48439324 -45.14453125 58.46875 C-46.56014091 58.46844788 -46.56014091 58.46844788 -48.00434875 58.46813965 C-48.87923447 58.45222778 -49.75412018 58.43631592 -50.65551758 58.41992188 C-51.42414627 58.41150269 -52.19277496 58.4030835 -52.98469543 58.39440918 C-55.48710853 57.90466946 -56.39322104 56.92759989 -58 55 C-54.63335404 50.78891479 -52.55545818 49.21066357 -47.12792969 48.47558594 C-42.37815266 48.25706745 -37.62796769 48.30791243 -32.875 48.375 C-30.40524298 48.3991046 -27.93669593 48.4142125 -25.46682739 48.40542603 C-23.93638109 48.40087402 -22.40572224 48.41535985 -20.8757019 48.45175171 C-17.17510692 48.44988237 -15.15267286 48.09645236 -11.99267578 46.10009766 C-9.77056317 44.24069869 -9.77056317 44.24069869 -10 42 C-10.66966797 42.81275391 -11.33933594 43.62550781 -12.02929688 44.46289062 C-15.60066133 47.51299084 -18.046511 47.7018256 -22.53125 47.59375 C-23.24478638 47.59379028 -23.95832275 47.59383057 -24.69348145 47.59387207 C-26.19629769 47.5885304 -27.6991145 47.57100508 -29.20166016 47.54199219 C-31.49338745 47.50012082 -33.78217314 47.500928 -36.07421875 47.5078125 C-37.53908278 47.49731886 -39.00393176 47.4843798 -40.46875 47.46875 C-41.48926453 47.46844788 -41.48926453 47.46844788 -42.53039551 47.46813965 C-47.99648094 47.33311972 -51.17562283 45.82437717 -55 42 C-55.17510386 39.34708243 -55.23155483 36.80013826 -55.1953125 34.1484375 C-55.1924826 33.37440582 -55.18965271 32.60037415 -55.18673706 31.80288696 C-55.17552754 29.32676843 -55.15042203 26.8510095 -55.125 24.375 C-55.11497118 22.69792188 -55.10584516 21.02083811 -55.09765625 19.34375 C-55.07558574 15.22902777 -55.04105102 11.11457489 -55 7 C-54.67 7 -54.34 7 -54 7 C-53.34 15.25 -52.68 23.5 -52 32 C-50.68 30.68 -49.36 29.36 -48 28 C-47.34 28.33 -46.68 28.66 -46 29 C-46.639375 29.721875 -47.27875 30.44375 -47.9375 31.1875 C-50.0237323 34.03236223 -50.45817933 35.60649159 -51 39 C-44.59241952 33.77823245 -44.59241952 33.77823245 -40 27 C-39.27624179 25.72607872 -38.5467999 24.45537422 -37.8125 23.1875 C-36.9153125 21.6096875 -36.9153125 21.6096875 -36 20 C-35 22 -35 22 -35.71264648 24.15478516 C-36.09493408 25.02409668 -36.47722168 25.8934082 -36.87109375 26.7890625 C-37.28037109 27.73007812 -37.68964844 28.67109375 -38.11132812 29.640625 C-38.54896484 30.62546875 -38.98660156 31.6103125 -39.4375 32.625 C-39.87126953 33.61757813 -40.30503906 34.61015625 -40.75195312 35.6328125 C-41.82770887 38.09168277 -42.91064366 40.54713211 -44 43 C-39.25523296 41.19214967 -37.18111045 39.36813457 -34.984375 34.75976562 C-34.70078125 34.11716797 -34.4171875 33.47457031 -34.125 32.8125 C-33.81820312 32.15830078 -33.51140625 31.50410156 -33.1953125 30.83007812 C-32.44678976 29.22777163 -31.72103504 27.6148625 -31 26 C-32.32 25.34 -33.64 24.68 -35 24 C-35 23.67 -35 23.34 -35 23 C-32.69 22.34 -30.38 21.68 -28 21 C-28 19.35 -28 17.7 -28 16 C-29.32 15.34 -30.64 14.68 -32 14 C-30.70982586 13.01886757 -29.41780894 12.04015801 -28.125 11.0625 C-27.40570313 10.51722656 -26.68640625 9.97195312 -25.9453125 9.41015625 C-24 8 -24 8 -22 7 C-21.01 7.66 -20.02 8.32 -19 9 C-19.825 9.556875 -20.65 10.11375 -21.5 10.6875 C-24.2745414 12.74927133 -24.2745414 12.74927133 -24.3125 15.75 C-24.1578125 16.86375 -24.1578125 16.86375 -24 18 C-23.34 17.34 -22.68 16.68 -22 16 C-19.42489788 16.1457605 -16.9533277 16.58066859 -14.41015625 17.00390625 C-11.95079262 17.24109408 -11.95079262 17.24109408 -10.2265625 15.6640625 C-8.84544144 13.79031227 -8.3929206 12.27893945 -8 10 C-7.38125 9.855625 -6.7625 9.71125 -6.125 9.5625 C-3.96741678 9.06847775 -3.96741678 9.06847775 -2 8 C-1.31527335 6.11235097 -1.31527335 6.11235097 -0.875 3.9375 C-0.70742187 3.20402344 -0.53984375 2.47054688 -0.3671875 1.71484375 C-0.18542969 0.86599609 -0.18542969 0.86599609 0 0 Z " fill="#0C6ABF" transform="translate(94,24)" />
  <path d="M0 0 C3.196875 -0.061875 6.39375 -0.12375 9.6875 -0.1875 C11.18543091 -0.22846802 11.18543091 -0.22846802 12.71362305 -0.27026367 C17.60045592 -0.31605465 21.08380688 -0.29406875 25 3 C26.23533809 5.47067619 26.09927132 7.1212365 26.0625 9.875 C26.05347656 10.73867188 26.04445312 11.60234375 26.03515625 12.4921875 C26.02355469 13.31976563 26.01195312 14.14734375 26 15 C26 16.32 26 17.64 26 19 C26.48597656 19.47695313 26.97195312 19.95390625 27.47265625 20.4453125 C29.56168873 22.57174454 29.43303686 23.93825238 29.4375 26.875 C29.33611863 30.53006507 29.08832915 31.85572906 27.125 35.0625 C23.87104993 38.02933682 22.08677818 38.12135592 17.7734375 38.09765625 C16.3800415 38.09390991 16.3800415 38.09390991 14.95849609 38.09008789 C13.77594238 38.08098389 12.59338867 38.07187988 11.375 38.0625 C5.744375 38.0315625 5.744375 38.0315625 0 38 C0 25.46 0 12.92 0 0 Z " fill="#0A0A0A" transform="translate(130,26)" />
  <path d="M0 0 C3.625 0.1875 3.625 0.1875 6.625 2.1875 C6.8125 5.3125 6.8125 5.3125 6.625 8.1875 C7.285 8.1875 7.945 8.1875 8.625 8.1875 C8.625 9.1775 8.625 10.1675 8.625 11.1875 C7.903125 11.27 7.18125 11.3525 6.4375 11.4375 C3.05820404 12.33864559 1.24775931 13.91916763 -1.375 16.1875 C-2.035 16.5175 -2.695 16.8475 -3.375 17.1875 C-2.055 17.8475 -0.735 18.5075 0.625 19.1875 C0.625 20.8375 0.625 22.4875 0.625 24.1875 C-1.685 25.1775 -3.995 26.1675 -6.375 27.1875 C-5.055 27.8475 -3.735 28.5075 -2.375 29.1875 C-3.63668291 31.6509284 -4.90872354 34.10796584 -6.1875 36.5625 C-6.54392578 37.26117188 -6.90035156 37.95984375 -7.26757812 38.6796875 C-7.61884766 39.35 -7.97011719 40.0203125 -8.33203125 40.7109375 C-8.65147705 41.32888184 -8.97092285 41.94682617 -9.30004883 42.58349609 C-10.375 44.1875 -10.375 44.1875 -13.375 46.1875 C-14.365 46.1875 -15.355 46.1875 -16.375 46.1875 C-13.97809494 38.74447903 -11.22237559 31.46912848 -8.375 24.1875 C-8.643125 24.8165625 -8.91125 25.445625 -9.1875 26.09375 C-12.18138475 32.63302458 -15.72856738 37.66326633 -21.375 42.1875 C-22.86 42.6825 -22.86 42.6825 -24.375 43.1875 C-23.92163921 38.31387153 -22.6660841 35.79707611 -19.375 32.1875 C-22.345 34.6625 -22.345 34.6625 -25.375 37.1875 C-25.705 31.5775 -26.035 25.9675 -26.375 20.1875 C-26.705 27.4475 -27.035 34.7075 -27.375 42.1875 C-27.705 42.1875 -28.035 42.1875 -28.375 42.1875 C-28.4991194 37.59775538 -28.58957876 33.00899914 -28.6496582 28.41796875 C-28.67471627 26.85822521 -28.70877301 25.2985981 -28.75219727 23.73925781 C-28.81324193 21.48994157 -28.84129426 19.2421844 -28.86328125 16.9921875 C-28.88908768 16.3013205 -28.9148941 15.61045349 -28.94148254 14.89865112 C-28.94368247 11.05266013 -28.34832848 8.69973761 -25.96948242 5.76220703 C-21.36495668 1.19277742 -16.55199565 1.85153961 -10.40820312 1.58203125 C-6.52908649 1.38989738 -3.65377359 0.20298742 0 0 Z " fill="#15AAD6" transform="translate(66.375,20.8125)" />
  <path d="M0 0 C0.66 0.99 1.32 1.98 2 3 C2.598125 2.649375 3.19625 2.29875 3.8125 1.9375 C6 1 6 1 9 2 C9.11710979 5.99974981 9.18755489 9.99905281 9.25 14 C9.30027344 15.68802734 9.30027344 15.68802734 9.3515625 17.41015625 C9.43040612 24.15128563 9.26716588 29.57146258 5 35 C-0.75843123 40.01994035 -6.09508603 40.72413058 -13.51953125 40.59375 C-14.49991867 40.59379028 -15.48030609 40.59383057 -16.49040222 40.59387207 C-18.54859886 40.58853924 -20.60679654 40.57105312 -22.66479492 40.54199219 C-25.82077778 40.49988957 -28.97464111 40.50094956 -32.13085938 40.5078125 C-34.13543153 40.49732757 -36.13999271 40.48439324 -38.14453125 40.46875 C-39.56014091 40.46844788 -39.56014091 40.46844788 -41.00434875 40.46813965 C-41.87923447 40.45222778 -42.75412018 40.43631592 -43.65551758 40.41992188 C-44.42414627 40.41150269 -45.19277496 40.4030835 -45.98469543 40.39440918 C-48.48710853 39.90466946 -49.39322104 38.92759989 -51 37 C-47.63335404 32.78891479 -45.55545818 31.21066357 -40.12792969 30.47558594 C-35.37815266 30.25706745 -30.62796769 30.30791243 -25.875 30.375 C-23.40524298 30.3991046 -20.93669593 30.4142125 -18.46682739 30.40542603 C-16.93638109 30.40087402 -15.40572224 30.41535985 -13.8757019 30.45175171 C-10.2923288 30.44994159 -8.19448204 30.11975982 -5.11767578 28.22509766 C-1.59134654 24.51989075 -0.76291641 21.87027046 -0.5859375 16.796875 C-0.54726562 15.8171875 -0.50859375 14.8375 -0.46875 13.828125 C-0.4378125 12.81234375 -0.406875 11.7965625 -0.375 10.75 C-0.33632812 9.71875 -0.29765625 8.6875 -0.2578125 7.625 C-0.16368326 5.0835106 -0.07805021 2.54202567 0 0 Z " fill="#102050" transform="translate(87,42)" />
  <path d="M0 0 C3.96524671 2.29795833 6.47810189 5.21715283 9 9 C9.7372535 15.09909712 9.72909136 20.90357514 6 26 C2.28420208 29.62052105 -0.9635105 30.36920884 -6 30.6875 C-9.35884417 30.58736055 -11.31612806 30.48424831 -14.07421875 28.53125 C-18.84052076 23.08404771 -19.40299828 18.0465961 -19.3515625 10.95703125 C-18.81587865 6.45133488 -17.40059652 4.93687881 -14 2 C-9.51850215 -0.67580039 -5.08765399 -0.91437099 0 0 Z " fill="#131313" transform="translate(388,35)" />
  <path d="M0 0 C3.06303578 -0.08115993 6.12390815 -0.14057409 9.1875 -0.1875 C10.48397461 -0.22520508 10.48397461 -0.22520508 11.80664062 -0.26367188 C18.62304179 -0.34202131 21.75909776 1.04517039 26.9375 5.5625 C28.64220856 7.70279656 28.9955184 8.73843728 29.04296875 11.5078125 C28.37293781 15.80352486 27.82870803 18.27488047 24.5 21.1875 C22 22 22 22 20 21 C19.896875 21.763125 19.79375 22.52625 19.6875 23.3125 C18.92823805 26.280524 18.43357952 27.20570517 16 29 C13.625 29.00390625 13.625 29.00390625 11 28.5625 C6.77325987 27.79608409 6.77325987 27.79608409 3 30 C2.6875 27.25 2.6875 27.25 3 24 C5.4375 21.875 5.4375 21.875 8 20 C8.86965506 17.87053397 8.86965506 17.87053397 9 16 C8.34 16 7.68 16 7 16 C6.87625 15.030625 6.7525 14.06125 6.625 13.0625 C6.315625 11.5465625 6.315625 11.5465625 6 10 C3.01405576 8.50702788 0.29146376 8.88244772 -3 9 C-3.99 9.495 -3.99 9.495 -5 10 C-7.0571802 9.59255295 -9.09831097 9.10151304 -11.125 8.5625 C-12.22070312 8.27503906 -13.31640625 7.98757812 -14.4453125 7.69140625 C-15.28835937 7.46324219 -16.13140625 7.23507813 -17 7 C-14.01745707 3.83381855 -12.39489175 2.45075813 -8 2 C-5.33333333 2 -2.66666667 2 0 2 C0 1.34 0 0.68 0 0 Z " fill="#1BABD9" transform="translate(66,13)" />
  <path d="M0 0 C4.2549217 2.47825214 4.2549217 2.47825214 6 5 C6.71698239 8.30614685 6.57060494 11.44959967 6.375 14.8125 C6.34792969 15.69615234 6.32085937 16.57980469 6.29296875 17.49023438 C6.22255869 19.66121114 6.11494606 21.83092529 6 24 C6.99 24 7.98 24 9 24 C9 25.65 9 27.3 9 29 C5 29 1 29 -3 29 C-3.66 29.33 -4.32 29.66 -5 30 C-8.05905981 30.41338646 -10.94532102 30.46661171 -14 30 C-16.72522624 27.87299416 -17.70898425 26.41310533 -18.40625 23.02734375 C-18.67188122 19.47452614 -18.33688915 17.42672626 -16.125 14.625 C-13.12804835 13.06658514 -11.09633309 12.5900043 -7.8125 12.0625 C-5.23549614 11.7003625 -5.23549614 11.7003625 -3 11 C-1.24431996 8.54251602 -1.24431996 8.54251602 -1 6 C-2.258125 6.12375 -3.51625 6.2475 -4.8125 6.375 C-5.52019531 6.44460937 -6.22789062 6.51421875 -6.95703125 6.5859375 C-9.29988142 6.92665391 -9.29988142 6.92665391 -12 9 C-14.1875 8.625 -14.1875 8.625 -16 8 C-15.74310052 4.83157307 -15.41729253 3.39037043 -13.0625 1.1875 C-8.74932154 -0.48495695 -4.54097212 -1.03793648 0 0 Z " fill="#101011" transform="translate(198,35)" />
  <path d="M0 0 C2.64 0 5.28 0 8 0 C8.84600276 2.0364495 9.6762825 4.07943487 10.5 6.125 C10.9640625 7.26195312 11.428125 8.39890625 11.90625 9.5703125 C12.98315041 12.9471645 13.21360807 15.48614728 13 19 C13.66 19 14.32 19 15 19 C15.12246094 18.15179688 15.24492187 17.30359375 15.37109375 16.4296875 C16.02206903 12.87964842 16.97441716 9.56474576 18.0625 6.125 C18.42472656 4.97257812 18.78695313 3.82015625 19.16015625 2.6328125 C19.43730469 1.76398437 19.71445312 0.89515625 20 0 C22.64 0 25.28 0 28 0 C25.97118858 7.93366361 23.51303356 15.62801471 20.6875 23.3125 C20.32205078 24.35728516 19.95660156 25.40207031 19.58007812 26.47851562 C17.30705613 32.65375499 15.28785094 36.96200474 10 41 C7.48046875 41.62109375 7.48046875 41.62109375 5.1875 41.4375 C4.41792969 41.39496094 3.64835937 41.35242188 2.85546875 41.30859375 C1 41 1 41 0 40 C-0.04080783 38.00041636 -0.04254356 35.99954746 0 34 C4.455 33.505 4.455 33.505 9 33 C8.55941408 25.27925621 6.86444562 19.12779502 3.9375 12 C3.19396923 10.14689255 2.45294953 8.29277493 1.71484375 6.4375 C1.38605225 5.63183594 1.05726074 4.82617188 0.71850586 3.99609375 C0 2 0 2 0 0 Z " fill="#121212" transform="translate(307,36)" />
  <path d="M0 0 C2.75329021 1.79562405 4.52627461 3.05254922 6 6 C6.08449628 7.7404417 6.10723024 9.48409722 6.09765625 11.2265625 C6.09443359 12.2578125 6.09121094 13.2890625 6.08789062 14.3515625 C6.07951172 15.43179688 6.07113281 16.51203125 6.0625 17.625 C6.05798828 18.71296875 6.05347656 19.8009375 6.04882812 20.921875 C6.03701776 23.61463789 6.02054778 26.30729188 6 29 C3.36 29 0.72 29 -2 29 C-2.33 22.07 -2.66 15.14 -3 8 C-5.31 7.67 -7.62 7.34 -10 7 C-10.87829054 9.63487162 -11.25985103 11.71452023 -11.53515625 14.44921875 C-11.66567383 15.72055664 -11.66567383 15.72055664 -11.79882812 17.01757812 C-11.9293457 18.33918945 -11.9293457 18.33918945 -12.0625 19.6875 C-12.15337891 20.58017578 -12.24425781 21.47285156 -12.33789062 22.39257812 C-12.56164199 24.59476265 -12.78222601 26.79721768 -13 29 C-15.31 29 -17.62 29 -20 29 C-20 19.76 -20 10.52 -20 1 C-17.36 1 -14.72 1 -12 1 C-11.67 1.66 -11.34 2.32 -11 3 C-10.484375 2.505 -9.96875 2.01 -9.4375 1.5 C-6.06236872 -0.57700386 -3.90199054 -0.47919182 0 0 Z " fill="#141414" transform="translate(232,35)" />
  <path d="M0 0 C1.98 0 3.96 0 6 0 C6 6.93 6 13.86 6 21 C6.99 21 7.98 21 9 21 C9.268125 20.0925 9.53625 19.185 9.8125 18.25 C11.74859287 12.95121951 11.74859287 12.95121951 14 11 C16.75380976 10.6619085 19.20742697 10.81688046 22 11 C20.95099192 14.05960689 20.02814646 15.96944098 17.8125 18.375 C15.72884695 20.90717877 15.72884695 20.90717877 15.8125 24.1875 C17.25503547 28.81879808 19.58519185 32.02843114 22.50390625 35.86328125 C24 38 24 38 24 40 C20.99348102 40.36285574 18.91456463 40.60807464 16 40 C12.5905164 37.24276544 10.41132212 33.61698319 8 30 C8 29.01 8 28.02 8 27 C7.34 27 6.68 27 6 27 C6 30.96 6 34.92 6 39 C4.02 39 2.04 39 0 39 C0 26.13 0 13.26 0 0 Z " fill="#090909" transform="translate(246,25)" />
  <path d="M0 0 C1.19109375 -0.00386719 1.19109375 -0.00386719 2.40625 -0.0078125 C4.5 0.125 4.5 0.125 6.5 1.125 C6.542721 2.79111905 6.54063832 4.45882885 6.5 6.125 C5.5 7.125 5.5 7.125 3.43359375 7.22265625 C2.60988281 7.21105469 1.78617187 7.19945312 0.9375 7.1875 C0.11121094 7.17847656 -0.71507812 7.16945313 -1.56640625 7.16015625 C-2.20449219 7.14855469 -2.84257812 7.13695312 -3.5 7.125 C-3.5 9.105 -3.5 11.085 -3.5 13.125 C-0.86 13.125 1.78 13.125 4.5 13.125 C4.5 14.775 4.5 16.425 4.5 18.125 C2.19 18.455 -0.12 18.785 -2.5 19.125 C-2.83 26.385 -3.16 33.645 -3.5 41.125 C-5.81 41.125 -8.12 41.125 -10.5 41.125 C-10.5 33.865 -10.5 26.605 -10.5 19.125 C-11.82 19.125 -13.14 19.125 -14.5 19.125 C-14.5 17.145 -14.5 15.165 -14.5 13.125 C-13.18 13.125 -11.86 13.125 -10.5 13.125 C-10.62375 11.26875 -10.62375 11.26875 -10.75 9.375 C-10.76153532 6.11627351 -10.69423516 5.37750571 -8.625 2.6875 C-5.51696188 0.40217785 -3.80897169 -0.01236679 0 0 Z " fill="#121313" transform="translate(300.5,22.875)" />
  <path d="M0 0 C0.01458252 0.78648926 0.02916504 1.57297852 0.04418945 2.38330078 C0.11889363 5.96434958 0.21548207 9.54448911 0.3125 13.125 C0.33505859 14.3625 0.35761719 15.6 0.38085938 16.875 C0.41630859 18.07382812 0.45175781 19.27265625 0.48828125 20.5078125 C0.51446533 21.60754395 0.54064941 22.70727539 0.56762695 23.84033203 C1.06274029 27.45848949 2.10588403 29.88885655 4 33 C7.75663168 35.50442112 10.81008125 35.34885437 15.16796875 35.4140625 C16.36018791 35.44311172 16.36018791 35.44311172 17.57649231 35.4727478 C20.11338595 35.53249442 22.65032509 35.57890883 25.1875 35.625 C26.90822284 35.66318435 28.62892665 35.70223635 30.34960938 35.7421875 C34.56625165 35.83819179 38.7829834 35.92224076 43 36 C43 36.33 43 36.66 43 37 C41.95134766 36.99887207 40.90269531 36.99774414 39.82226562 36.99658203 C35.90050272 37.00027623 31.97995417 37.04327683 28.05859375 37.09765625 C26.36726751 37.11573149 24.67579463 37.12340022 22.984375 37.12011719 C10.55063779 36.76504226 10.55063779 36.76504226 0.09960938 42.71826172 C-0.44469727 43.35272217 -0.44469727 43.35272217 -1 44 C-5.12059731 40.09627623 -7.73144118 37.60725851 -8.32226562 31.87133789 C-8.39681187 28.6326936 -8.46215568 25.3950238 -8.48046875 22.15551758 C-8.49991635 20.07146364 -8.56200158 17.99133436 -8.625 15.90820312 C-8.70159764 6.10849267 -8.70159764 6.10849267 -6.69921875 2.94482422 C-4.59053091 1.12409284 -2.8360387 0 0 0 Z " fill="#2FAFD8" transform="translate(36,36)" />
  <path d="M0 0 C2.8125 1.4375 2.8125 1.4375 5 4 C5.83140112 8.69996143 5.66493385 12.00259922 3 16 C2.34 16 1.68 16 1 16 C1 16.99 1 17.98 1 19 C-0.32 19.33 -1.64 19.66 -3 20 C-3 20.66 -3 21.32 -3 22 C-6.21142152 23.85684088 -8.9441131 24.41266805 -12.625 24.75 C-14.06746094 24.89695312 -14.06746094 24.89695312 -15.5390625 25.046875 C-18 25 -18 25 -20 23 C-19.15308594 22.03320312 -19.15308594 22.03320312 -18.2890625 21.046875 C-14.97396285 16.63428502 -12.66445097 11.79940469 -10.1796875 6.88671875 C-9.798125 6.14550781 -9.4165625 5.40429688 -9.0234375 4.640625 C-8.68231934 3.96547852 -8.34120117 3.29033203 -7.98974609 2.59472656 C-6.04130986 -0.54468772 -3.40721362 -0.39618763 0 0 Z " fill="#3DB6E3" transform="translate(75,44)" />
  <path d="M0 0 C2.64 0 5.28 0 8 0 C8 11.22 8 22.44 8 34 C9.32 34 10.64 34 12 34 C12 35.98 12 37.96 12 40 C4.54148472 40.36681223 4.54148472 40.36681223 2.0625 38.6875 C-0.42695813 34.73365474 -0.12948187 30.75992428 -0.09765625 26.26953125 C-0.0962413 25.51911057 -0.09482635 24.76868988 -0.09336853 23.99552917 C-0.0877756 21.6011454 -0.07522444 19.20685547 -0.0625 16.8125 C-0.05748408 15.18815239 -0.05292134 13.56380332 -0.04882812 11.93945312 C-0.03780848 7.95959931 -0.02054873 3.97981556 0 0 Z " fill="#191919" transform="translate(165,25)" />
  <path d="M0 0 C0.66 0 1.32 0 2 0 C2 6.6 2 13.2 2 20 C0.35 20.33 -1.3 20.66 -3 21 C-3.99 21.33 -4.98 21.66 -6 22 C-6.33 27.94 -6.66 33.88 -7 40 C-7.66 39.67 -8.32 39.34 -9 39 C-9.99 41.475 -9.99 41.475 -11 44 C-11.66 44 -12.32 44 -13 44 C-13.01458252 43.35450195 -13.02916504 42.70900391 -13.04418945 42.04394531 C-13.1187787 39.11203427 -13.2154024 36.18124835 -13.3125 33.25 C-13.33505859 32.23421875 -13.35761719 31.2184375 -13.38085938 30.171875 C-13.41630859 29.1921875 -13.45175781 28.2125 -13.48828125 27.203125 C-13.51446533 26.30239258 -13.54064941 25.40166016 -13.56762695 24.47363281 C-14.07012061 21.5988357 -15.09621932 20.17195002 -17 18 C-16.05125 17.71125 -15.1025 17.4225 -14.125 17.125 C-10.94788422 16.23174891 -10.94788422 16.23174891 -9 14 C-8.3574765 11.93125966 -8.3574765 11.93125966 -8 10 C-7.38125 9.855625 -6.7625 9.71125 -6.125 9.5625 C-3.96741678 9.06847775 -3.96741678 9.06847775 -2 8 C-1.31527335 6.11235097 -1.31527335 6.11235097 -0.875 3.9375 C-0.70742187 3.20402344 -0.53984375 2.47054688 -0.3671875 1.71484375 C-0.24601562 1.14894531 -0.12484375 0.58304688 0 0 Z " fill="#1F61A2" transform="translate(94,24)" />
  <path d="M0 0 C8.26315789 0 8.26315789 0 13 4 C14.52634958 5.9374716 15.73988791 7.86750263 17 10 C15.58829091 11.29708314 14.17041804 12.58745978 12.75 13.875 C11.96109375 14.59429687 11.1721875 15.31359375 10.359375 16.0546875 C8 18 8 18 5.8125 19.03125 C3.53740204 20.24725064 3.13324124 21.24024866 2.25 23.625 C1.63125 25.295625 1.63125 25.295625 1 27 C0.67 27 0.34 27 0 27 C0 18.09 0 9.18 0 0 Z " fill="#62D5EA" transform="translate(41,31)" />
  <path d="M0 0 C2.64 0 5.28 0 8 0 C8 9.57 8 19.14 8 29 C5.36 29 2.72 29 0 29 C0 19.43 0 9.86 0 0 Z " fill="#212122" transform="translate(355,36)" />
  <path d="M0 0 C0 0.99 0 1.98 0 3 C3.465 2.505 3.465 2.505 7 2 C7.36923077 8.52307692 7.36923077 8.52307692 5.5 10.9375 C5.005 11.288125 4.51 11.63875 4 12 C4.99 13.485 4.99 13.485 6 15 C1.9886007 17.6742662 -1.28658035 17.80825788 -6 17 C-8.72522624 14.87299416 -9.70898425 13.41310533 -10.40625 10.02734375 C-10.5625 7.9375 -10.5625 7.9375 -10 4 C-6.91722952 0.47683374 -4.64436785 -0.5307849 0 0 Z " fill="#181819" transform="translate(190,48)" />
  <path d="M0 0 C2.09375 -0.36328125 2.09375 -0.36328125 4.5 -0.3125 C5.69109375 -0.30669922 5.69109375 -0.30669922 6.90625 -0.30078125 C9 0 9 0 11 2 C11.30078125 4.4609375 11.30078125 4.4609375 11.3125 7.375 C11.32925781 8.33148438 11.34601563 9.28796875 11.36328125 10.2734375 C10.94387769 13.42121908 10.2476678 14.77816746 8 17 C4.5 17.5 4.5 17.5 1 17 C-1.11523095 14.86531865 -1.92456066 13.51347418 -2.36328125 10.52734375 C-2.34652344 9.67269531 -2.32976562 8.81804688 -2.3125 7.9375 C-2.30863281 7.08027344 -2.30476563 6.22304688 -2.30078125 5.33984375 C-2 3 -2 3 0 0 Z " fill="#EDEEF0" transform="translate(378,42)" />
  <path d="M0 0 C0.33 0 0.66 0 1 0 C1.66 8.25 2.32 16.5 3 25 C4.32 23.68 5.64 22.36 7 21 C7.66 21.33 8.32 21.66 9 22 C8.360625 22.721875 7.72125 23.44375 7.0625 24.1875 C4.9762677 27.03236223 4.54182067 28.60649159 4 32 C10.40758048 26.77823245 10.40758048 26.77823245 15 20 C15.72375821 18.72607872 16.4532001 17.45537422 17.1875 16.1875 C17.785625 15.135625 18.38375 14.08375 19 13 C20 15 20 15 19.28735352 17.15478516 C18.90506592 18.02409668 18.52277832 18.8934082 18.12890625 19.7890625 C17.71962891 20.73007812 17.31035156 21.67109375 16.88867188 22.640625 C16.45103516 23.62546875 16.01339844 24.6103125 15.5625 25.625 C15.12873047 26.61757813 14.69496094 27.61015625 14.24804688 28.6328125 C13.17229113 31.09168277 12.08935634 33.54713211 11 36 C16.46530407 33.85568098 18.29563822 31.5228108 20.875 26.3125 C21.18179688 25.70599609 21.48859375 25.09949219 21.8046875 24.47460938 C22.55234654 22.99097346 23.27843491 21.49650038 24 20 C25 23 25 23 23.9609375 25.55859375 C18.50810156 35.45696835 18.50810156 35.45696835 14 38 C11.1875 38.75 11.1875 38.75 9 39 C9.165 37.88625 9.33 36.7725 9.5 35.625 C10.0455458 32.27967967 10.0455458 32.27967967 10 30 C9.071875 30.99 9.071875 30.99 8.125 32 C6 34 6 34 4 34 C3.67 35.32 3.34 36.64 3 38 C1.51831055 36.99682617 1.51831055 36.99682617 0 35 C-0.26156261 32.27093638 -0.34921131 29.7753901 -0.29296875 27.05078125 C-0.28872391 26.27816452 -0.28447906 25.50554779 -0.28010559 24.70951843 C-0.26332183 22.24349008 -0.22567147 19.77828104 -0.1875 17.3125 C-0.17245271 15.63998577 -0.15876438 13.96745872 -0.14648438 12.29492188 C-0.11341946 8.19629922 -0.06164028 4.09828849 0 0 Z " fill="#17407E" transform="translate(39,31)" />
  <path d="M0 0 C2.31 0 4.62 0 7 0 C7 9.24 7 18.48 7 28 C4.69 28 2.38 28 0 28 C0 18.76 0 9.52 0 0 Z " fill="#0F0F0F" transform="translate(274,36)" />
  <path d="M0 0 C11.625 -0.25 11.625 -0.25 15 2 C15.4375 5.4375 15.4375 5.4375 15 9 C12.74631577 11.31174167 11.43159364 11.95479117 8.203125 12.29296875 C5.46875 12.1953125 2.734375 12.09765625 0 12 C0 8.04 0 4.08 0 0 Z " fill="#E0E2E4" transform="translate(137,47)" />
  <path d="M0 0 C2 1 2 1 3.4375 3.9375 C4.79632842 7.21743175 4.79632842 7.21743175 8 9 C10.75218977 9.24073135 13.41217466 9.37282688 16.16796875 9.4140625 C16.96278152 9.43342865 17.7575943 9.4527948 18.57649231 9.4727478 C21.11338595 9.53249442 23.65032509 9.57890883 26.1875 9.625 C27.90822284 9.66318435 29.62892665 9.70223635 31.34960938 9.7421875 C35.56625165 9.83819179 39.7829834 9.92224076 44 10 C44 10.33 44 10.66 44 11 C42.95134766 10.99887207 41.90269531 10.99774414 40.82226562 10.99658203 C36.90050272 11.00027623 32.97995417 11.04327683 29.05859375 11.09765625 C27.36726751 11.11573149 25.67579463 11.12340022 23.984375 11.12011719 C11.55063779 10.76504226 11.55063779 10.76504226 1.09960938 16.71826172 C0.55530273 17.35272217 0.55530273 17.35272217 0 18 C-2.53282222 15.72695442 -4.62394457 13.73231847 -6.1875 10.6875 C-5.8760965 6.22404985 -2.83337083 3.30970564 0 0 Z " fill="#1C71B4" transform="translate(35,62)" />
  <path d="M0 0 C1.05960938 0.00676758 1.05960938 0.00676758 2.140625 0.01367188 C3.88545275 0.02546125 5.630237 0.04339676 7.375 0.0625 C7.375 0.3925 7.375 0.7225 7.375 1.0625 C6.49457031 1.08828125 5.61414063 1.1140625 4.70703125 1.140625 C2.96486328 1.22570312 2.96486328 1.22570312 1.1875 1.3125 C-0.53533203 1.38210937 -0.53533203 1.38210937 -2.29296875 1.453125 C-6.14348693 2.15732293 -7.8456446 3.35936093 -10.625 6.0625 C-12.10631672 9.02513344 -11.80827691 12.05107928 -11.828125 15.30078125 C-11.83382507 16.01856247 -11.83952515 16.73634369 -11.84539795 17.47587585 C-11.85484952 18.99651617 -11.86138256 20.51717699 -11.86523438 22.0378418 C-11.87491925 24.35567389 -11.9059308 26.67261125 -11.9375 28.99023438 C-11.94403237 30.46874474 -11.94928192 31.94726145 -11.953125 33.42578125 C-11.9654718 34.11553543 -11.9778186 34.80528961 -11.99053955 35.51594543 C-11.97054536 39.87209553 -11.37430898 42.64837364 -8.625 46.0625 C-5.18585635 48.64380958 -1.29292586 48.38506802 2.84375 48.3984375 C3.561073 48.4050943 4.278396 48.4117511 5.01745605 48.41860962 C6.53032881 48.42871052 8.0432459 48.43342743 9.55615234 48.43310547 C11.86760746 48.43748599 14.1771628 48.47384769 16.48828125 48.51171875 C17.96093099 48.51758612 19.43358977 48.52155605 20.90625 48.5234375 C21.59489136 48.53780853 22.28353271 48.55217957 22.99304199 48.56698608 C26.34223816 48.53515695 28.08831208 48.2820573 30.77929688 46.22119141 C33.15632196 43.0055158 33.51817115 40.27994697 33.69140625 36.39453125 C33.75424805 35.05551758 33.75424805 35.05551758 33.81835938 33.68945312 C33.85767578 32.76068359 33.89699219 31.83191406 33.9375 30.875 C34.00227539 29.46444336 34.00227539 29.46444336 34.06835938 28.02539062 C34.17438665 25.70457146 34.27645029 23.38364675 34.375 21.0625 C34.705 21.0625 35.035 21.0625 35.375 21.0625 C35.52092789 24.77041544 35.60927895 28.47758726 35.6875 32.1875 C35.72939453 33.23421875 35.77128906 34.2809375 35.81445312 35.359375 C35.83056641 36.37773438 35.84667969 37.39609375 35.86328125 38.4453125 C35.88946533 39.37746582 35.91564941 40.30961914 35.94262695 41.27001953 C35.15773871 45.13133211 33.5309803 47.76170859 30.375 50.0625 C27.48485457 50.89291958 24.74123109 50.85883094 21.75 50.7890625 C20.9254834 50.79005951 20.1009668 50.79105652 19.25146484 50.79208374 C17.51324797 50.78741576 15.77501593 50.76803681 14.03710938 50.73486328 C11.38287977 50.68764019 8.73266849 50.69374869 6.078125 50.70703125 C4.38539282 50.69587694 2.69267749 50.68165665 1 50.6640625 C-0.18456787 50.66679672 -0.18456787 50.66679672 -1.39306641 50.66958618 C-6.36706456 50.54218065 -9.01315634 49.78852115 -12.625 46.0625 C-14.24154921 42.82940158 -13.83067585 39.28454643 -13.86328125 35.73046875 C-13.871353 34.90170731 -13.87942474 34.07294586 -13.88774109 33.21907043 C-13.90158221 31.46304415 -13.91230424 29.70699096 -13.92016602 27.95092773 C-13.93736651 25.27079991 -13.98124926 22.59190972 -14.02539062 19.91210938 C-14.03551879 18.20573824 -14.04403451 16.49935661 -14.05078125 14.79296875 C-14.06828934 13.99384567 -14.08579742 13.1947226 -14.10383606 12.37138367 C-14.08843681 8.40280324 -13.91215601 6.51297622 -11.72338867 3.0793457 C-8.03215973 -0.46844281 -4.86983762 -0.05840211 0 0 Z " fill="#B0D6E0" transform="translate(50.625,21.9375)" />
  <path d="M0 0 C2.8125 1.4375 2.8125 1.4375 5 4 C5.83140112 8.69996143 5.66493385 12.00259922 3 16 C2.34 16 1.68 16 1 16 C1 16.99 1 17.98 1 19 C-0.32 19.33 -1.64 19.66 -3 20 C-3 20.66 -3 21.32 -3 22 C-6.21142152 23.85684088 -8.9441131 24.41266805 -12.625 24.75 C-14.06746094 24.89695312 -14.06746094 24.89695312 -15.5390625 25.046875 C-18 25 -18 25 -20 23 C-18.07423885 20.56070254 -16.19909405 18.19909405 -14 16 C-13.67 17.32 -13.34 18.64 -13 20 C-8.85005696 18.06979393 -5.53611126 15.88472234 -2 13 C-1.2575 12.690625 -0.515 12.38125 0.25 12.0625 C2.29519511 11.09194817 2.29519511 11.09194817 2.75 8.375 C2.8325 7.59125 2.915 6.8075 3 6 C2.01 5.34 1.02 4.68 0 4 C0 3.34 0 2.68 0 2 C-0.8971875 2.309375 -0.8971875 2.309375 -1.8125 2.625 C-4 3 -4 3 -7 1 C-4.39120333 -0.30439833 -2.90289827 -0.33754631 0 0 Z " fill="#2394D7" transform="translate(75,44)" />
  <path d="M0 0 C0.99 0.66 1.98 1.32 3 2 C3.1875 5.125 3.1875 5.125 3 8 C3.66 8 4.32 8 5 8 C5 8.99 5 9.98 5 11 C3.9171875 11.12375 3.9171875 11.12375 2.8125 11.25 C-0.56537138 12.1507657 -2.34878227 13.7673956 -5 16 C-5.99 16.33 -6.98 16.66 -8 17 C-7.34 15.02 -6.68 13.04 -6 11 C-7.32 10.34 -8.64 9.68 -10 9 C-10.35789474 3.63157895 -10.35789474 3.63157895 -8.9375 1.125 C-5.92517484 -0.62409203 -3.40497373 -0.30401551 0 0 Z " fill="#D5EAE5" transform="translate(70,21)" />
  <path d="M0 0 C0.78375 0.04125 1.5675 0.0825 2.375 0.125 C2.375 1.775 2.375 3.425 2.375 5.125 C-1.09 6.61 -1.09 6.61 -4.625 8.125 C-3.305 8.785 -1.985 9.445 -0.625 10.125 C-1.88668291 12.5884284 -3.15872354 15.04546584 -4.4375 17.5 C-4.97213867 18.54800781 -4.97213867 18.54800781 -5.51757812 19.6171875 C-5.86884766 20.2875 -6.22011719 20.9578125 -6.58203125 21.6484375 C-6.90147705 22.26638184 -7.22092285 22.88432617 -7.55004883 23.52099609 C-8.625 25.125 -8.625 25.125 -11.625 27.125 C-12.615 27.125 -13.605 27.125 -14.625 27.125 C-12.80699393 21.13627411 -10.55059571 15.42303279 -8.0625 9.6875 C-7.75755615 8.97722656 -7.4526123 8.26695313 -7.13842773 7.53515625 C-3.910006 0.18619076 -3.910006 0.18619076 0 0 Z " fill="#CEE2E0" transform="translate(64.625,39.875)" />
  <path d="M0 0 C1.8125 1.125 1.8125 1.125 3 3 C3.52255002 6.50855014 3.37385021 8.33726554 1.625 11.4375 C-2.01226309 13.60253756 -4.59245636 12.88584985 -8.66015625 12.1640625 C-11.27417885 11.74111847 -11.27417885 11.74111847 -14 14 C-14.34829914 10.37145077 -14.47013949 8.61251288 -12.20703125 5.6640625 C-11.41683594 4.99117187 -10.62664062 4.31828125 -9.8125 3.625 C-9.03519531 2.93664062 -8.25789063 2.24828125 -7.45703125 1.5390625 C-4.65914662 -0.21350752 -3.2391627 -0.41583845 0 0 Z " fill="#C3DADC" transform="translate(83,29)" />
  <path d="M0 0 C1.18851563 0.00902344 2.37703125 0.01804687 3.6015625 0.02734375 C4.51679687 0.03894531 5.43203125 0.05054687 6.375 0.0625 C6.045 1.0525 5.715 2.0425 5.375 3.0625 C3.065 3.3925 0.755 3.7225 -1.625 4.0625 C-1.955 5.0525 -2.285 6.0425 -2.625 7.0625 C-5.33379335 8.41689668 -7.63433268 8.12751451 -10.625 8.0625 C-10.625 11.3625 -10.625 14.6625 -10.625 18.0625 C-10.955 18.0625 -11.285 18.0625 -11.625 18.0625 C-11.955 25.3225 -12.285 32.5825 -12.625 40.0625 C-12.955 40.0625 -13.285 40.0625 -13.625 40.0625 C-13.7491194 35.47275538 -13.83957876 30.88399914 -13.8996582 26.29296875 C-13.92471627 24.73322521 -13.95877301 23.1735981 -14.00219727 21.61425781 C-14.06324193 19.36494157 -14.09129426 17.1171844 -14.11328125 14.8671875 C-14.13908768 14.1763205 -14.1648941 13.48545349 -14.19148254 12.77365112 C-14.19368247 8.92766013 -13.59832848 6.57473761 -11.21948242 3.63720703 C-7.32505439 -0.2275373 -5.39145915 -0.05285744 0 0 Z " fill="#4CB2D0" transform="translate(51.625,22.9375)" />
  <path d="M0 0 C3 1 3 1 5 2 C2.34268952 5.73991846 0.50471559 7.8738211 -4 9 C-6.8087988 9.30841712 -9.13618217 9.23095305 -12 9 C-13.7421875 7.48046875 -13.7421875 7.48046875 -15 6 C-10.09019603 0.84470583 -7.16303048 -0.924262 0 0 Z " fill="#143F7F" transform="translate(51,73)" />
  <path d="M0 0 C1.32 0.66 2.64 1.32 4 2 C3.175 2.556875 2.35 3.11375 1.5 3.6875 C-1.2745414 5.74927133 -1.2745414 5.74927133 -1.3125 8.75 C-1.209375 9.4925 -1.10625 10.235 -1 11 C-0.34 10.34 0.32 9.68 1 9 C4.43740538 9.09045804 5.76708089 9.78596622 8.3125 12.125 C10.38044558 15.64816654 10.31523361 17.98077152 10 22 C9.67 22 9.34 22 9 22 C8.731875 21.05125 8.46375 20.1025 8.1875 19.125 C7.25013412 15.74732727 7.25013412 15.74732727 4 14 C0.45421315 13.83974601 0.45421315 13.83974601 -3 15 C-5.01041003 17.93449408 -5.01041003 17.93449408 -6 21 C-8.01920337 19.69593116 -10.01924973 18.36176581 -12 17 C-12 16.67 -12 16.34 -12 16 C-9.69 15.34 -7.38 14.68 -5 14 C-5 12.35 -5 10.7 -5 9 C-6.32 8.34 -7.64 7.68 -9 7 C-8.43410156 6.57847656 -7.86820313 6.15695313 -7.28515625 5.72265625 C-6.55167969 5.17480469 -5.81820312 4.62695312 -5.0625 4.0625 C-4.33160156 3.51722656 -3.60070312 2.97195312 -2.84765625 2.41015625 C-1.0865547 1.13092062 -1.0865547 1.13092062 0 0 Z " fill="#15549B" transform="translate(71,31)" />
  <path d="M0 0 C9.625 -0.25 9.625 -0.25 13 2 C13.1875 5.125 13.1875 5.125 13 8 C8.50343896 10.24828052 4.92127034 10.16682272 0 10 C0 6.7 0 3.4 0 0 Z " fill="#DDDEDF" transform="translate(137,32)" />
  <path d="M0 0 C-0.11029647 3.56311404 -0.24082717 7.12521145 -0.375 10.6875 C-0.42140625 12.19860352 -0.42140625 12.19860352 -0.46875 13.74023438 C-0.52675781 15.20493164 -0.52675781 15.20493164 -0.5859375 16.69921875 C-0.6173584 17.59471436 -0.6487793 18.49020996 -0.68115234 19.4128418 C-1.02661113 22.21592507 -1.84681468 24.43264531 -3 27 C-3.66 27 -4.32 27 -5 27 C-5.01458252 26.35450195 -5.02916504 25.70900391 -5.04418945 25.04394531 C-5.1187787 22.11203427 -5.2154024 19.18124835 -5.3125 16.25 C-5.33505859 15.23421875 -5.35761719 14.2184375 -5.38085938 13.171875 C-5.41630859 12.1921875 -5.45175781 11.2125 -5.48828125 10.203125 C-5.51446533 9.30239258 -5.54064941 8.40166016 -5.56762695 7.47363281 C-6.07012061 4.5988357 -7.09621932 3.17195002 -9 1 C-3.375 -1.125 -3.375 -1.125 0 0 Z " fill="#1A427B" transform="translate(86,41)" />
  <path d="M0 0 C1.29111191 0.0001133 1.29111191 0.0001133 2.60830688 0.00022888 C4.00368179 0.00797081 4.00368179 0.00797081 5.42724609 0.01586914 C6.37884613 0.01728409 7.33044617 0.01869904 8.31088257 0.02015686 C11.35751456 0.02576527 14.40407372 0.0383192 17.45068359 0.05102539 C19.51318253 0.05603931 21.57568262 0.0606024 23.63818359 0.06469727 C28.70071176 0.07573744 33.76318532 0.09300772 38.82568359 0.11352539 C38.82568359 0.44352539 38.82568359 0.77352539 38.82568359 1.11352539 C25.62568359 1.11352539 12.42568359 1.11352539 -1.17431641 1.11352539 C-1.83431641 2.43352539 -2.49431641 3.75352539 -3.17431641 5.11352539 C-4.86181641 6.55102539 -4.86181641 6.55102539 -7.17431641 8.11352539 C-8.42590745 9.00713448 -9.67581093 9.90311034 -10.92431641 10.80102539 C-11.99681641 11.56415039 -13.06931641 12.32727539 -14.17431641 13.11352539 C-14.50431641 12.45352539 -14.83431641 11.79352539 -15.17431641 11.11352539 C-11.42080213 4.99668732 -7.52424003 -0.0220007 0 0 Z " fill="#70EAF3" transform="translate(43.17431640625,11.886474609375)" />
  <path d="M0 0 C0.67879858 6.10918723 0.39467526 9.13541752 -3.4375 14.0625 C-5.37109375 16.34765625 -5.37109375 16.34765625 -7 18 C-7.33 18 -7.66 18 -8 18 C-8 12.39 -8 6.78 -8 1 C-1 0 -1 0 0 0 Z " fill="#2086C2" transform="translate(36,53)" />
  <path d="M0 0 C0.99 1.485 0.99 1.485 2 3 C2.598125 2.649375 3.19625 2.29875 3.8125 1.9375 C6 1 6 1 9 2 C9 10.25 9 18.5 9 27 C8.67 27 8.34 27 8 27 C7.67 21.72 7.34 16.44 7 11 C5.02 11.99 5.02 11.99 3 13 C2.01 13.495 2.01 13.495 1 14 C-0.38226016 11.23547967 -0.09525387 8.9538637 -0.0625 5.875 C-0.05347656 4.77929688 -0.04445313 3.68359375 -0.03515625 2.5546875 C-0.02355469 1.71164063 -0.01195313 0.86859375 0 0 Z " fill="#193D77" transform="translate(87,42)" />
  <path d="M0 0 C0.33 0.66 0.66 1.32 1 2 C-1.49661581 9.33977764 -5.98421314 15.17981931 -12 20 C-12.99 20.33 -13.98 20.66 -15 21 C-14.29331158 13.4030995 -10.17974482 10.04532993 -4.6171875 5.42578125 C-2.77227847 3.79923102 -1.34510681 2.05722218 0 0 Z " fill="#D3E5E1" transform="translate(57,43)" />
  <path d="M0 0 C0.33 0 0.66 0 1 0 C1.66 8.25 2.32 16.5 3 25 C4.32 23.68 5.64 22.36 7 21 C7.66 21.33 8.32 21.66 9 22 C8.1028125 23.0209375 8.1028125 23.0209375 7.1875 24.0625 C5.42408203 26.43051842 4.44446392 28.09005127 3.375 30.75 C2 34 2 34 0 35 C0 23.45 0 11.9 0 0 Z " fill="#1066A4" transform="translate(39,31)" />
  <path d="M0 0 C0.36272727 6.40818182 0.36272727 6.40818182 -1.1875 8.9375 C-3.62103204 10.36405327 -5.22542896 10.35571424 -8 10 C-8.66 9.34 -9.32 8.68 -10 8 C-10 5.5625 -10 5.5625 -9 3 C-5.79266696 0.97798569 -3.80845564 0 0 0 Z " fill="#D6D7D8" transform="translate(197,50)" />
  <path d="M0 0 C19.305 0.495 19.305 0.495 39 1 C39 1.33 39 1.66 39 2 C37.95134766 1.99887207 36.90269531 1.99774414 35.82226562 1.99658203 C31.90050272 2.00027623 27.97995417 2.04327683 24.05859375 2.09765625 C22.36726751 2.11573149 20.67579463 2.12340022 18.984375 2.12011719 C6.55063779 1.76504226 6.55063779 1.76504226 -3.90039062 7.71826172 C-4.44469727 8.35272217 -4.44469727 8.35272217 -5 9 C-5.66 8.01 -6.32 7.02 -7 6 C-5.75 4 -5.75 4 -4 2 C-2.68 2 -1.36 2 0 2 C0 1.34 0 0.68 0 0 Z " fill="#35679C" transform="translate(40,71)" />
  <path d="M0 0 C2.97 0.495 2.97 0.495 6 1 C6 1.66 6 2.32 6 3 C7.65 3 9.3 3 11 3 C10.38125 3.268125 9.7625 3.53625 9.125 3.8125 C6.7004767 4.95556848 6.7004767 4.95556848 5 8 C4.3709375 8.144375 3.741875 8.28875 3.09375 8.4375 C0.22228004 9.20893969 -0.68392241 10.68862852 -2.5 13 C-4.87865317 16.02737676 -6.17327997 17.37266885 -10 18 C-10.66 18.33 -11.32 18.66 -12 19 C-10.68518188 14.79968914 -9.33404544 13.16079197 -5.5625 10.9375 C-2.24711372 8.96574638 -0.15386626 7.22041097 2 4 C1.34 2.68 0.68 1.36 0 0 Z " fill="#198AC4" transform="translate(55,36)" />
  <path d="M0 0 C0.66 0.33 1.32 0.66 2 1 C1.01 3.97 0.02 6.94 -1 10 C9.23 10 19.46 10 30 10 C30 10.33 30 10.66 30 11 C25.35522856 11.02472039 20.71049543 11.04286968 16.06567383 11.05493164 C14.48558892 11.05996014 12.90550866 11.06678378 11.32543945 11.07543945 C9.05418754 11.08756992 6.78299715 11.09324313 4.51171875 11.09765625 C3.45219246 11.10539818 3.45219246 11.10539818 2.3712616 11.11329651 C-0.70254391 11.11364803 -3.0590442 10.9803186 -6 10 C-6.375 7.8125 -6.375 7.8125 -6 5 C-4.16038352 3.00977164 -2.20813852 1.61010101 0 0 Z " fill="#2277B9" transform="translate(49,60)" />
  <path d="M0 0 C3.25 -0.3125 3.25 -0.3125 7 0 C9.4375 2.5 9.4375 2.5 11 5 C10.030625 5.28875 9.06125 5.5775 8.0625 5.875 C4.89335797 6.64214682 4.89335797 6.64214682 4 9 C3.01 9 2.02 9 1 9 C0.67 9.66 0.34 10.32 0 11 C0 7.37 0 3.74 0 0 Z " fill="#7DE0EC" transform="translate(41,31)" />
  <path d="M0 0 C6.625 0.75 6.625 0.75 10 3 C10.66 2.67 11.32 2.34 12 2 C12.33 4.64 12.66 7.28 13 10 C12.34 10 11.68 10 11 10 C10.566875 9.34 10.13375 8.68 9.6875 8 C8.15960631 5.74267881 8.15960631 5.74267881 5.5 5.625 C2.75628937 5.85543074 2.75628937 5.85543074 0 8 C0 7.01 0 6.02 0 5 C-0.66 4.67 -1.32 4.34 -2 4 C-1.34 2.68 -0.68 1.36 0 0 Z " fill="#1190CA" transform="translate(75,24)" />
  <path d="M0 0 C1.05960938 0.00676758 1.05960938 0.00676758 2.140625 0.01367188 C3.88545275 0.02546125 5.630237 0.04339676 7.375 0.0625 C7.375 0.3925 7.375 0.7225 7.375 1.0625 C6.49457031 1.08828125 5.61414063 1.1140625 4.70703125 1.140625 C2.96486328 1.22570312 2.96486328 1.22570312 1.1875 1.3125 C-0.53533203 1.38210937 -0.53533203 1.38210937 -2.29296875 1.453125 C-6.14348693 2.15732293 -7.8456446 3.35936093 -10.625 6.0625 C-12.1524639 9.1174278 -11.86491832 12.3388314 -11.94140625 15.6953125 C-11.96218735 16.44714813 -11.98296844 17.19898376 -12.00437927 17.97360229 C-12.06982705 20.37814085 -12.12873738 22.78278967 -12.1875 25.1875 C-12.23068977 26.81641771 -12.27430421 28.44532422 -12.31835938 30.07421875 C-12.42550351 34.07019915 -12.52678433 38.06629059 -12.625 42.0625 C-12.955 42.0625 -13.285 42.0625 -13.625 42.0625 C-13.7240984 37.02715764 -13.7965758 31.99238658 -13.84472656 26.95629883 C-13.86480505 25.24428414 -13.89207392 23.53233772 -13.92675781 21.82055664 C-13.97544401 19.35545992 -13.99800573 16.8912721 -14.015625 14.42578125 C-14.03627014 13.66413162 -14.05691528 12.90248199 -14.07818604 12.11775208 C-14.07975467 8.37758391 -13.76553729 6.28152502 -11.72558594 3.10229492 C-8.04127535 -0.47539162 -4.88183281 -0.05854597 0 0 Z " fill="#EEFAEF" transform="translate(50.625,21.9375)" />
  <path d="M0 0 C3.0625 0.1875 3.0625 0.1875 5.0625 2.1875 C5.25 4.75 5.25 4.75 5.0625 7.1875 C4.0625 8.1875 4.0625 8.1875 0.5625 8.3125 C-2.9375 8.1875 -2.9375 8.1875 -3.9375 7.1875 C-4.0625 4.1875 -4.0625 4.1875 -3.9375 1.1875 C-2.9375 0.1875 -2.9375 0.1875 0 0 Z " fill="#171717" transform="translate(342.9375,55.8125)" />
  <path d="M0 0 C-0.33 1.65 -0.66 3.3 -1 5 C-5.46236469 6.80619523 -8.31034294 7.11658501 -13 6 C-13 5.01 -13 4.02 -13 3 C-8.79593898 -0.54717649 -5.23066851 -0.2659662 0 0 Z " fill="#D5D6D8" transform="translate(197,41)" />
  <path d="M0 0 C2.31 0.33 4.62 0.66 7 1 C7 2.98 7 4.96 7 7 C4.29120665 8.35439668 1.99066732 8.06501451 -1 8 C-1.625 5.6875 -1.625 5.6875 -2 3 C-1.34 2.01 -0.68 1.02 0 0 Z " fill="#1F1F1F" transform="translate(356,24)" />
  <path d="M0 0 C0.33 0 0.66 0 1 0 C0.67 2.97 0.34 5.94 0 9 C-0.66 9 -1.32 9 -2 9 C-2.33 10.32 -2.66 11.64 -3 13 C-1.02 13 0.96 13 3 13 C0.6875 15.5 0.6875 15.5 -2 18 C-2.99 18 -3.98 18 -5 18 C-6.36139053 12.8189366 -5.59764648 10.2813915 -3.0625 5.625 C-2.49660156 4.56539062 -1.93070312 3.50578125 -1.34765625 2.4140625 C-0.90292969 1.61742187 -0.45820312 0.82078125 0 0 Z " fill="#39A8D6" transform="translate(67,46)" />
  <path d="M0 0 C2.5625 -0.25 2.5625 -0.25 5 0 C6 1 6 1 6.0625 4.5625 C6.041875 5.696875 6.02125 6.83125 6 8 C3.69 8 1.38 8 -1 8 C-1.625 5.6875 -1.625 5.6875 -2 3 C-1.34 2.01 -0.68 1.02 0 0 Z " fill="#212121" transform="translate(275,24)" />
  <path d="M0 0 C0.99 0.99 1.98 1.98 3 3 C1.58829091 4.29708314 0.17041804 5.58745978 -1.25 6.875 C-2.03890625 7.59429687 -2.8278125 8.31359375 -3.640625 9.0546875 C-6 11 -6 11 -8.1875 12.03125 C-10.46259796 13.24725064 -10.86675876 14.24024866 -11.75 16.625 C-12.36875 18.295625 -12.36875 18.295625 -13 20 C-13.97983761 16.95161632 -14.21704816 14.99581086 -13 12 C-11.1875 9.75 -11.1875 9.75 -9 8 C-7.68 8 -6.36 8 -5 8 C-5 7.01 -5 6.02 -5 5 C-4.34 5 -3.68 5 -3 5 C-3 4.34 -3 3.68 -3 3 C-1.5 1.375 -1.5 1.375 0 0 Z " fill="#3CC3E5" transform="translate(55,38)" />
  <path d="M0 0 C1.1446875 0.12375 1.1446875 0.12375 2.3125 0.25 C2.3125 1.9 2.3125 3.55 2.3125 5.25 C1.19875 5.724375 0.085 6.19875 -1.0625 6.6875 C-2.95460994 7.50306463 -4.84462709 8.32856355 -6.6875 9.25 C-6.04078163 4.59362773 -5.23074478 0.48658091 0 0 Z " fill="#BCD6DD" transform="translate(64.6875,39.75)" />
  <path d="M0 0 C2.625 0.375 2.625 0.375 5 1 C5.6875 2.8125 5.6875 2.8125 6 5 C4.8125 6.8125 4.8125 6.8125 3 8 C0.8125 7.6875 0.8125 7.6875 -1 7 C-1.625 4.625 -1.625 4.625 -2 2 C-1.34 1.34 -0.68 0.68 0 0 Z " fill="#149ED1" transform="translate(65,23)" />
  <path d="M0 0 C0.33 0 0.66 0 1 0 C1.29351416 3.05254729 1.42065016 5.95554445 1 9 C-1.81415012 12.13576727 -4.95985848 13.83048535 -9 15 C-9.99 14.67 -10.98 14.34 -12 14 C-10.68 13.67 -9.36 13.34 -8 13 C-8 12.34 -8 11.68 -8 11 C-6.68 10.67 -5.36 10.34 -4 10 C-4 9.01 -4 8.02 -4 7 C-3.34 7 -2.68 7 -2 7 C-1.34 4.69 -0.68 2.38 0 0 Z " fill="#167CCB" transform="translate(80,53)" />
  <path d="M0 0 C2.31 0 4.62 0 7 0 C7 2.31 7 4.62 7 7 C4.69 7.33 2.38 7.66 0 8 C0 5.36 0 2.72 0 0 Z " fill="#248FC6" transform="translate(28,54)" />
  <path d="M0 0 C2 2 2 2 2.125 5.125 C2.08375 6.07375 2.0425 7.0225 2 8 C1.34 6.68 0.68 5.36 0 4 C-2.33165034 3.66501699 -2.33165034 3.66501699 -5 4 C-7.10413616 5.85410577 -7.10413616 5.85410577 -9 8 C-11.25 9.25 -11.25 9.25 -13 10 C-13 7 -13 7 -11.42578125 5.17578125 C-10.72839844 4.56089844 -10.03101562 3.94601563 -9.3125 3.3125 C-8.62800781 2.68988281 -7.94351563 2.06726563 -7.23828125 1.42578125 C-4.56212213 -0.27892744 -3.11748462 -0.43944642 0 0 Z " fill="#D2E7E3" transform="translate(83,29)" />
  <path d="M0 0 C0.99 0.33 1.98 0.66 3 1 C3 1.66 3 2.32 3 3 C2.34 3 1.68 3 1 3 C0.79375 3.804375 0.5875 4.60875 0.375 5.4375 C-0.07875 6.283125 -0.5325 7.12875 -1 8 C-4.125 8.8125 -4.125 8.8125 -7 9 C-7 8.34 -7 7.68 -7 7 C-6.34 7 -5.68 7 -5 7 C-4.67 5.02 -4.34 3.04 -4 1 C-2.68 1.33 -1.36 1.66 0 2 C0 1.34 0 0.68 0 0 Z " fill="#49C1E8" transform="translate(72,48)" />
  <path d="M0 0 C3.40295732 0.18394364 4.77983104 0.79768258 7.3125 3.125 C9.38044558 6.64816654 9.31523361 8.98077152 9 13 C8.67 13 8.34 13 8 13 C7.731875 12.05125 7.46375 11.1025 7.1875 10.125 C6.25013412 6.74732727 6.25013412 6.74732727 3 5 C-0.12521833 4.83300768 -0.12521833 4.83300768 -3 5 C-1.125 1.125 -1.125 1.125 0 0 Z " fill="#1169B1" transform="translate(72,40)" />
  <path d="M0 0 C0.78375 0.04125 1.5675 0.0825 2.375 0.125 C2.41754356 2.12454746 2.41580783 4.12541636 2.375 6.125 C1.375 7.125 1.375 7.125 -1.1875 7.1875 C-2.3940625 7.1565625 -2.3940625 7.1565625 -3.625 7.125 C-4.25 4.75 -4.25 4.75 -4.625 2.125 C-2.625 0.125 -2.625 0.125 0 0 Z " fill="#105EA6" transform="translate(80.625,31.875)" />
  <path d="M0 0 C2.8125 1.4375 2.8125 1.4375 5 4 C5.4192717 7.04496069 5.29355454 9.94703274 5 13 C3.68 12.67 2.36 12.34 1 12 C1.66 10.02 2.32 8.04 3 6 C2.01 5.34 1.02 4.68 0 4 C0 3.34 0 2.68 0 2 C-0.8971875 2.309375 -0.8971875 2.309375 -1.8125 2.625 C-4 3 -4 3 -7 1 C-4.39120333 -0.30439833 -2.90289827 -0.33754631 0 0 Z " fill="#2495D6" transform="translate(75,44)" />
  <path d="M0 0 C0 0.66 0 1.32 0 2 C-0.66 2 -1.32 2 -2 2 C-2 2.99 -2 3.98 -2 5 C-3.32 5.33 -4.64 5.66 -6 6 C-6 6.66 -6 7.32 -6 8 C-9.63423209 10.32590854 -12.77088331 10.16265833 -17 10 C-16 8 -16 8 -13.49609375 7.1484375 C-12.48675781 6.89320312 -11.47742188 6.63796875 -10.4375 6.375 C-9.42558594 6.11460938 -8.41367188 5.85421875 -7.37109375 5.5859375 C-6.58863281 5.39257812 -5.80617188 5.19921875 -5 5 C-4.87625 4.360625 -4.7525 3.72125 -4.625 3.0625 C-4.41875 2.381875 -4.2125 1.70125 -4 1 C-2 0 -2 0 0 0 Z " fill="#1D8AD5" transform="translate(78,58)" />
  <path d="M0 0 C0.66 0.66 1.32 1.32 2 2 C-5.11389522 8.51936219 -5.11389522 8.51936219 -10 10 C-9.32942834 7.06624899 -8.5040235 5.38058917 -6.0859375 3.5546875 C-4.08267818 2.3159229 -2.06666551 1.12945673 0 0 Z " fill="#25A2CF" transform="translate(53,45)" />
  <path d="M0 0 C0.66 0.33 1.32 0.66 2 1 C1.814375 2.093125 1.62875 3.18625 1.4375 4.3125 C0.7421932 7.93624133 0.7421932 7.93624133 2 11 C-1.875 10.125 -1.875 10.125 -3 9 C-3.47058824 3.58823529 -3.47058824 3.58823529 -1.5 1.125 C-1.005 0.75375 -0.51 0.3825 0 0 Z " fill="#CBEBE6" transform="translate(63,21)" />
  <path d="M0 0 C-2.3125 2.5 -2.3125 2.5 -5 5 C-5.99 5 -6.98 5 -8 5 C-8.33 3.68 -8.66 2.36 -9 1 C-6.04335481 -0.4783226 -3.25770263 -0.06032783 0 0 Z " fill="#2CA8E1" transform="translate(70,59)" />
  <path d="M0 0 C2.31 0 4.62 0 7 0 C6.34 1.32 5.68 2.64 5 4 C4.34 3.67 3.68 3.34 3 3 C2.67 3.99 2.34 4.98 2 6 C1.01 6 0.02 6 -1 6 C-0.67 4.02 -0.34 2.04 0 0 Z " fill="#E2EEE5" transform="translate(57,49)" />
  <path d="M0 0 C6.875 0.875 6.875 0.875 8 2 C8.04080783 3.99958364 8.04254356 6.00045254 8 8 C7.01 8.495 7.01 8.495 6 9 C5.34 7.02 4.68 5.04 4 3 C2.35 2.67 0.7 2.34 -1 2 C-0.67 1.34 -0.34 0.68 0 0 Z " fill="#E8F6E9" transform="translate(65,21)" />
  <path d="M0 0 C0.33 0 0.66 0 1 0 C1.3125 2.25 1.3125 2.25 1 5 C-1.5 7.3125 -1.5 7.3125 -4 9 C-4.33 6.69 -4.66 4.38 -5 2 C-4.34 2.66 -3.68 3.32 -3 4 C-2.525625 3.34 -2.05125 2.68 -1.5625 2 C-1.046875 1.34 -0.53125 0.68 0 0 Z " fill="#103573" transform="translate(92,47)" />
  <path d="M0 0 C1.32 0.66 2.64 1.32 4 2 C1.03 4.475 1.03 4.475 -2 7 C-3.32 6.34 -4.64 5.68 -6 5 C-4.02 3.35 -2.04 1.7 0 0 Z " fill="#237BBA" transform="translate(71,31)" />
  <path d="M0 0 C2.33294775 -0.04241723 4.66702567 -0.04092937 7 0 C8 1 8 1 8.09765625 3.06640625 C8.08605469 3.89011719 8.07445312 4.71382812 8.0625 5.5625 C8.05347656 6.38878906 8.04445312 7.21507812 8.03515625 8.06640625 C8.02355469 8.70449219 8.01195312 9.34257813 8 10 C6.23537317 6.91190305 6 5.76687864 6 2 C4.02 2 2.04 2 0 2 C0 1.34 0 0.68 0 0 Z " fill="#D2D3D3" transform="translate(222,42)" />
  <path d="M0 0 C1.76462683 3.08809695 2 4.23312136 2 8 C1.34 8 0.68 8 0 8 C-0.433125 7.360625 -0.86625 6.72125 -1.3125 6.0625 C-3.40849852 3.50072404 -4.78299472 3.34778436 -8 3 C-8 2.67 -8 2.34 -8 2 C-6.865625 1.855625 -5.73125 1.71125 -4.5625 1.5625 C-1.19222799 1.38828522 -1.19222799 1.38828522 0 0 Z " fill="#0E79BE" transform="translate(86,26)" />
  <path d="M0 0 C4.29 0 8.58 0 13 0 C12.67 0.99 12.34 1.98 12 3 C8.04 2.67 4.08 2.34 0 2 C0 1.34 0 0.68 0 0 Z " fill="#3FC9E3" transform="translate(45,23)" />
  <path d="M0 0 C0.66 0.66 1.32 1.32 2 2 C-0.3125 4.5 -0.3125 4.5 -3 7 C-3.99 7 -4.98 7 -6 7 C-5.8125 4.625 -5.8125 4.625 -5 2 C-2.4375 0.6875 -2.4375 0.6875 0 0 Z " fill="#B0CCD5" transform="translate(56,60)" />
  <path d="M0 0 C1.0625 1.875 1.0625 1.875 2 4 C1.67 4.66 1.34 5.32 1 6 C-1.31 6 -3.62 6 -6 6 C-5.34 5.67 -4.68 5.34 -4 5 C-3.67 4.01 -3.34 3.02 -3 2 C-2.01 1.34 -1.02 0.68 0 0 Z " fill="#0D5AAB" transform="translate(80,64)" />
  <path d="M0 0 C0.66 0.33 1.32 0.66 2 1 C0.68 3.64 -0.64 6.28 -2 9 C-2.33 8.34 -2.66 7.68 -3 7 C-3.66 7 -4.32 7 -5 7 C-3.70700306 4.11562221 -2.34058637 2.12780579 0 0 Z " fill="#219CD1" transform="translate(49,60)" />
  <path d="M0 0 C0.66 0 1.32 0 2 0 C2.66 2.31 3.32 4.62 4 7 C0.37 6.67 -3.26 6.34 -7 6 C-7 5.67 -7 5.34 -7 5 C-4.69 5 -2.38 5 0 5 C0 3.35 0 1.7 0 0 Z " fill="#A2A3A3" transform="translate(305,36)" />
  <path d="M0 0 C0.32523926 3.57763189 0.42956587 5.39542581 -1.6875 8.375 C-4.38790237 10.27258004 -5.77060081 10.35882213 -9 10 C-7.68 9.67 -6.36 9.34 -5 9 C-4.81824219 8.15115234 -4.81824219 8.15115234 -4.6328125 7.28515625 C-4.38144531 6.18494141 -4.38144531 6.18494141 -4.125 5.0625 C-3.96257812 4.33160156 -3.80015625 3.60070313 -3.6328125 2.84765625 C-2.93449973 0.80875539 -2.29775298 0 0 0 Z " fill="#A3C5D3" transform="translate(86,32)" />
  <path d="M0 0 C0.99 0.33 1.98 0.66 3 1 C2.67 1.66 2.34 2.32 2 3 C2.99 3.33 3.98 3.66 5 4 C3.68 4 2.36 4 1 4 C1 7.3 1 10.6 1 14 C0.67 14 0.34 14 0 14 C-0.19393875 11.85473901 -0.37998676 9.70876323 -0.5625 7.5625 C-0.71912109 5.77005859 -0.71912109 5.77005859 -0.87890625 3.94140625 C-0.91886719 2.97074219 -0.95882812 2.00007813 -1 1 C-0.67 0.67 -0.34 0.34 0 0 Z " fill="#32B2D5" transform="translate(40,27)" />
  <path d="M0 0 C3.125 0.375 3.125 0.375 6 1 C4.68 1.33 3.36 1.66 2 2 C2 2.66 2 3.32 2 4 C2.99 4.33 3.98 4.66 5 5 C4.01 5.33 3.02 5.66 2 6 C1.01 7.485 1.01 7.485 0 9 C-0.66 6.69 -1.32 4.38 -2 2 C-1.34 1.34 -0.68 0.68 0 0 Z " fill="#1E9FD0" transform="translate(73,19)" />
  <path d="M0 0 C2.33303944 0.03703237 4.66715242 0.04760913 7 0 C7 0.33 7 0.66 7 1 C1.03325384 2.32594359 -4.92583615 2.0884587 -11 2 C-6.9859263 -1.4019056 -5.15554568 -0.96120343 0 0 Z " fill="#1376C4" transform="translate(61,68)" />
  <path d="M0 0 C0.66 0.33 1.32 0.66 2 1 C0.625 3 0.625 3 -1 5 C-1.66 5 -2.32 5 -3 5 C-3 5.66 -3 6.32 -3 7 C-3.66 7 -4.32 7 -5 7 C-5.33 7.66 -5.66 8.32 -6 9 C-5.69381595 5.32579134 -5.24228216 4.21864487 -2.4375 1.6875 C-1.633125 1.130625 -0.82875 0.57375 0 0 Z " fill="#DCECE5" transform="translate(50,51)" />
  <path d="M0 0 C0.99 1.485 0.99 1.485 2 3 C2.99 2.67 3.98 2.34 5 2 C4.40072174 5.35595828 3.15377564 7.37801226 1 10 C-0.1577506 6.52674819 -0.06866652 3.63932552 0 0 Z " fill="#0F448A" transform="translate(87,42)" />
  <path d="M0 0 C0.5775 0.763125 1.155 1.52625 1.75 2.3125 C3.71703093 4.66200917 5.48476744 6.29323505 8 8 C7.01 8.33 6.02 8.66 5 9 C2.20926367 7.20595522 0.37411049 5.93527623 -0.875 2.8125 C-0.91625 2.214375 -0.9575 1.61625 -1 1 C-0.67 0.67 -0.34 0.34 0 0 Z " fill="#A4CEDC" transform="translate(38,63)" />
  <path d="M0 0 C0.66 0 1.32 0 2 0 C2 3.63 2 7.26 2 11 C1.34 10.67 0.68 10.34 0 10 C-1.11421833 6.35346727 -0.94296589 3.66708957 0 0 Z " fill="#2274B8" transform="translate(94,24)" />
  <path d="M0 0 C0.99 0.33 1.98 0.66 3 1 C2.67 1.99 2.34 2.98 2 4 C0.34561387 4.69658363 -1.32254318 5.36096883 -3 6 C-4.77277259 7.52007842 -4.77277259 7.52007842 -6 9 C-5.52797514 4.75177626 -3.03344482 2.80010291 0 0 Z " fill="#1C62A7" transform="translate(38,69)" />
  <path d="M0 0 C0.33 0.66 0.66 1.32 1 2 C-0.1875 4.625 -0.1875 4.625 -2 7 C-3.32 7 -4.64 7 -6 7 C-5.34 5.68 -4.68 4.36 -4 3 C-3.01 3 -2.02 3 -1 3 C-0.67 2.01 -0.34 1.02 0 0 Z " fill="#32AAE0" transform="translate(78,50)" />
  <path d="M0 0 C0.99 0.33 1.98 0.66 3 1 C3 1.99 3 2.98 3 4 C2.34 4 1.68 4 1 4 C1 4.66 1 5.32 1 6 C-1.31 5.67 -3.62 5.34 -6 5 C-5.67 4.34 -5.34 3.68 -5 3 C-2.4375 2.375 -2.4375 2.375 0 2 C0 1.34 0 0.68 0 0 Z " fill="#70DDED" transform="translate(51,34)" />
  <path d="M0 0 C1.65 0 3.3 0 5 0 C4.67 1.65 4.34 3.3 4 5 C2.68 5.33 1.36 5.66 0 6 C0 4.02 0 2.04 0 0 Z " fill="#9CEEF3" transform="translate(41,32)" />
  <path d="M0 0 C0.66 0.66 1.32 1.32 2 2 C1.67 2.99 1.34 3.98 1 5 C0.67 4.01 0.34 3.02 0 2 C-0.8971875 2.309375 -0.8971875 2.309375 -1.8125 2.625 C-4 3 -4 3 -7 1 C-4.48718205 -0.25640898 -2.78302919 -0.20872719 0 0 Z " fill="#2FA7DB" transform="translate(75,44)" />
  <path d="M0 0 C1.66611905 -0.042721 3.33382885 -0.04063832 5 0 C6 1 6 1 6.0625 4.0625 C6.041875 5.031875 6.02125 6.00125 6 7 C5.01 6.67 4.02 6.34 3 6 C3.66 6 4.32 6 5 6 C4.67 4.68 4.34 3.36 4 2 C2.35 2.33 0.7 2.66 -1 3 C-0.67 2.01 -0.34 1.02 0 0 Z " fill="#131313" transform="translate(275,24)" />
  <path d="M0 0 C0.66 1.32 1.32 2.64 2 4 C2.66 4.66 3.32 5.32 4 6 C2.68 7.32 1.36 8.64 0 10 C0 6.7 0 3.4 0 0 Z " fill="#0D245C" transform="translate(87,54)" />
  <path d="M0 0 C0.99 0 1.98 0 3 0 C2.67 2.64 2.34 5.28 2 8 C1.34 8 0.68 8 0 8 C0 5.36 0 2.72 0 0 Z " fill="#299CD0" transform="translate(28,54)" />
  <path d="M0 0 C0.99 0.33 1.98 0.66 3 1 C2.67 1.66 2.34 2.32 2 3 C1.34 3 0.68 3 0 3 C0 5.31 0 7.62 0 10 C-0.33 10 -0.66 10 -1 10 C-1 7.69 -1 5.38 -1 3 C-1.66 2.67 -2.32 2.34 -3 2 C-2.01 1.34 -1.02 0.68 0 0 Z " fill="#0A3B83" transform="translate(83,40)" />
  <path d="M0 0 C0.33 1.32 0.66 2.64 1 4 C1.99 4.33 2.98 4.66 4 5 C3.67 5.66 3.34 6.32 3 7 C2.01 7 1.02 7 0 7 C-0.33 7.66 -0.66 8.32 -1 9 C-0.67 6.03 -0.34 3.06 0 0 Z " fill="#86E8F1" transform="translate(42,33)" />
  <path d="M0 0 C-0.6875 2.375 -0.6875 2.375 -2 5 C-4.625 6.3125 -4.625 6.3125 -7 7 C-7 6.01 -7 5.02 -7 4 C-2.65714286 0 -2.65714286 0 0 0 Z " fill="#EBF5E9" transform="translate(77,32)" />
  <path d="M0 0 C3.3 0.33 6.6 0.66 10 1 C8 3 8 3 5.6171875 3.1953125 C4.71226563 3.17210937 3.80734375 3.14890625 2.875 3.125 C1.50988281 3.09792969 1.50988281 3.09792969 0.1171875 3.0703125 C-0.58148438 3.04710937 -1.28015625 3.02390625 -2 3 C-1.34 2.01 -0.68 1.02 0 0 Z " fill="#23C4E3" transform="translate(43,24)" />
  <path d="M0 0 C6.625 0.75 6.625 0.75 10 3 C10 3.66 10 4.32 10 5 C5 3 5 3 0 1 C0 0.67 0 0.34 0 0 Z " fill="#DBEFEA" transform="translate(75,22)" />
</svg>
